<svg width="92" height="118" viewBox="0 0 92 118" fill="none" xmlns="http://www.w3.org/2000/svg">
<path fill-rule="evenodd" clip-rule="evenodd" d="M92 0H0V118H92V0ZM66.665 90.187C67.7985 91.1487 70.306 91.8357 74.1874 92.2479V94.1542H17.4092L12.2569 75.8636H14.9361C18.0275 82.2181 21.2219 86.1682 24.5194 87.7139C27.8168 89.2596 34.1541 90.0324 43.5313 90.0324C45.9357 90.0324 47.5844 90.0152 48.4775 89.9809C49.3362 89.9465 50.1606 89.8778 50.9506 89.7748C52.2902 89.603 53.1661 89.1909 53.5782 88.5382C53.9561 87.8513 54.145 86.9239 54.145 85.756V35.0575C54.145 31.554 53.4924 29.2698 52.1871 28.205C50.8475 27.1402 48.237 26.5047 44.3557 26.2987V24.3408H74.1874V26.2987C70.2716 26.5734 67.747 27.2948 66.6135 28.4626C65.48 29.5961 64.9133 32.0349 64.9133 35.7789V82.7162C64.9133 86.7006 65.4972 89.1909 66.665 90.187Z" fill="black"/>
</svg>
